<svg xmlns="http://www.w3.org/2000/svg" viewBox="0 0 64 64" role="img" aria-label="Dragonfruit logo">
  <defs>
    <linearGradient id="skin" x1="16" y1="16" x2="50" y2="50" gradientUnits="userSpaceOnUse">
      <stop stop-color="#f43f8f" />
      <stop offset="1" stop-color="#be185d" />
    </linearGradient>
    <linearGradient id="flesh" x1="19" y1="22" x2="46" y2="43" gradientUnits="userSpaceOnUse">
      <stop stop-color="#ffe4f1" />
      <stop offset="1" stop-color="#ffcce2" />
    </linearGradient>
    <linearGradient id="leaf" x1="21" y1="12" x2="43" y2="26" gradientUnits="userSpaceOnUse">
      <stop stop-color="#34d399" />
      <stop offset="1" stop-color="#059669" />
    </linearGradient>
  </defs>
  <circle cx="32" cy="32" r="29" fill="white" />
  <circle cx="32" cy="32" r="29" fill="none" stroke="rgba(15,23,42,0.08)" />
  <path d="M21 18C23.4 17 26.4 17.5 28.6 19.2C26.1 20.3 22.8 20.1 21 18Z" fill="url(#leaf)" />
  <path d="M27 14C30.2 14.2 33.3 16.1 34.8 18.9C31.7 19.1 28.7 17.4 27 14Z" fill="url(#leaf)" />
  <path d="M35 14.8C38.1 15.5 40.7 17.8 41.7 20.8C38.7 20.8 35.9 19 35 14.8Z" fill="url(#leaf)" />
  <ellipse cx="32" cy="35" rx="17.5" ry="14.5" fill="url(#skin)" />
  <ellipse cx="32" cy="35" rx="11.2" ry="9.2" fill="url(#flesh)" />
  <circle cx="27.5" cy="31.2" r="1.1" fill="#111827" opacity="0.75" />
  <circle cx="33.2" cy="30.1" r="1.1" fill="#111827" opacity="0.75" />
  <circle cx="37.3" cy="33.8" r="1.1" fill="#111827" opacity="0.75" />
  <circle cx="30.1" cy="37.1" r="1.1" fill="#111827" opacity="0.75" />
  <circle cx="35" cy="38.5" r="1.1" fill="#111827" opacity="0.75" />
</svg>
